<?xml version="1.0" encoding="utf-8"?>
<!-- Generator: Adobe Illustrator 27.5.0, SVG Export Plug-In . SVG Version: 6.00 Build 0)  -->
<svg version="1.1" xmlns="http://www.w3.org/2000/svg" xmlns:xlink="http://www.w3.org/1999/xlink" x="0px" y="0px"
	 viewBox="0 0 750 500" style="enable-background:new 0 0 750 500;" xml:space="preserve">
<g id="BACKGROUND">
	<rect style="fill:#FFFFFF;" width="750" height="500"/>
</g>
<g id="OBJECTS">
	<g>
		<g>
			<g>
				
					<rect x="348.404" y="63.798" style="fill:#FFFFFF;stroke:#ACB6E8;stroke-width:1.5;stroke-linejoin:round;stroke-miterlimit:10;" width="312.408" height="197.091"/>
				<g>
					<g>
						<rect x="381.359" y="58.52" style="fill:#ACB6E8;" width="23.078" height="9.853"/>
						
							<line style="fill:none;stroke:#ACB6E8;stroke-width:1.5;stroke-linejoin:round;stroke-miterlimit:10;" x1="392.898" y1="63.446" x2="392.898" y2="29.938"/>
					</g>
					<g>
						<rect x="604.779" y="58.52" style="fill:#ACB6E8;" width="23.078" height="9.853"/>
						
							<line style="fill:none;stroke:#ACB6E8;stroke-width:1.5;stroke-linejoin:round;stroke-miterlimit:10;" x1="616.318" y1="63.446" x2="616.318" y2="29.938"/>
					</g>
				</g>
			</g>
			<g>
				<g>
					<path style="fill:#FFFFFF;stroke:#ACB6E8;stroke-width:1.5;stroke-linejoin:round;stroke-miterlimit:10;" d="M490.688,226.725
						H384.097c-6.39,0-11.571-5.18-11.571-11.571V94.833c0-6.39,5.181-11.571,11.571-11.571h106.591
						c6.39,0,11.571,5.181,11.571,11.571v120.32C502.258,221.544,497.078,226.725,490.688,226.725z"/>
					<g>
						<path style="fill:#FFEAC5;" d="M470.03,147.3c0-18.025-14.612-32.638-32.638-32.638c-18.025,0-32.638,14.612-32.638,32.638
							c0,7.502,2.538,14.408,6.793,19.92c2.216,3.178,13.237,19.09,13.237,21.169v2.907c0,1.738,1.396,3.147,3.117,3.147h8.007
							h2.969h8.007c1.722,0,3.117-1.409,3.117-3.147v-2.907c0-2.079,11.021-17.991,13.236-21.169
							C467.492,161.708,470.03,154.802,470.03,147.3z"/>
						<path style="fill:#EFD5BB;" d="M446.654,198.713H428.13c-1.179,0-2.135-0.956-2.135-2.135l0,0
							c0-1.179,0.956-2.135,2.135-2.135h18.524c1.179,0,2.135,0.956,2.135,2.135l0,0
							C448.789,197.758,447.833,198.713,446.654,198.713z"/>
						<path style="fill:#EFD5BB;" d="M446.654,202.983H428.13c-1.179,0-2.135-0.956-2.135-2.135l0,0
							c0-1.179,0.956-2.135,2.135-2.135h18.524c1.179,0,2.135,0.956,2.135,2.135l0,0
							C448.789,202.027,447.833,202.983,446.654,202.983z"/>
						<path style="fill:#EFD5BB;" d="M446.654,207.253H428.13c-1.179,0-2.135-0.956-2.135-2.135l0,0
							c0-1.179,0.956-2.135,2.135-2.135h18.524c1.179,0,2.135,0.956,2.135,2.135l0,0
							C448.789,206.297,447.833,207.253,446.654,207.253z"/>
						<path style="fill:none;stroke:#FFFFFF;stroke-width:1.5;stroke-miterlimit:10;" d="M443.351,194.445
							c0.108-10.891-0.151-22.412,5.305-32.235c0.829-1.492,2.85-4.231,4.875-2.895c0.603,0.398,0.904,1.118,1.097,1.815
							c1.109,4.001-0.267,8.219-2.338,11.661c-1.734,2.882-5.074,7.769-9.012,7.166c-2.983-0.457-5.311-3.658-6.614-7.144
							c-2.326-6.224-3.899-14.058-4.038-20.957c-0.133-6.647,1.499-12.999,4.826-12.999h-0.122c3.327,0,4.959,6.352,4.826,12.999
							c-0.138,6.899-1.712,14.732-4.038,20.957c-1.451,3.882-5.205,8.836-9.847,6.24c-5.175-2.894-8.543-10.243-8.589-15.972
							c-0.013-1.64,0.51-4.429,2.803-3.903c1.014,0.233,1.784,1.042,2.43,1.857c6.888,8.68,6.47,20.592,6.504,31.062
							c0.003,0.783,0.006,1.565,0.013,2.348"/>
						
							<line style="fill:none;stroke:#DDB78A;stroke-width:1.5;stroke-miterlimit:10;" x1="427.574" y1="194.444" x2="447.211" y2="194.444"/>
						
							<line style="fill:none;stroke:#DDB78A;stroke-width:1.5;stroke-miterlimit:10;" x1="427.574" y1="198.713" x2="447.211" y2="198.713"/>
						
							<line style="fill:none;stroke:#DDB78A;stroke-width:1.5;stroke-miterlimit:10;" x1="427.574" y1="202.983" x2="447.211" y2="202.983"/>
						<rect x="434.826" y="104.494" style="fill:#ACB6E8;" width="5.132" height="5.132"/>
						<path style="fill:none;stroke:#ACB6E8;stroke-miterlimit:10;" d="M463.186,116.865c-7.08-6.132-16.04-9.805-25.793-9.805
							s-18.713,3.673-25.793,9.805"/>
					</g>
				</g>
				<g>
					<rect x="531.773" y="83.262" style="fill:#F3F9FF;" width="90.243" height="60.968"/>
					<path style="fill:#E4E9F4;" d="M597.074,129.485H548.25c-0.788,0-1.427-0.639-1.427-1.427l0,0c0-0.788,0.639-1.427,1.427-1.427
						h48.823c0.788,0,1.427,0.639,1.427,1.427l0,0C598.501,128.846,597.862,129.485,597.074,129.485z"/>
					<g>
						<polyline style="fill:none;stroke:#C2CAEF;stroke-width:1.5;stroke-linejoin:round;stroke-miterlimit:10;" points="
							453.376,130.449 519.739,130.449 519.739,93.325 535.677,93.325 						"/>
						<path style="fill:#C2CAEF;" d="M456.23,130.449c0,1.576-1.278,2.854-2.854,2.854c-1.576,0-2.854-1.278-2.854-2.854
							s1.278-2.854,2.854-2.854C454.952,127.595,456.23,128.873,456.23,130.449z"/>
						<path style="fill:#C2CAEF;" d="M538.531,93.325c0,1.576-1.278,2.854-2.854,2.854s-2.854-1.278-2.854-2.854
							c0-1.576,1.278-2.854,2.854-2.854S538.531,91.749,538.531,93.325z"/>
					</g>
					<path style="fill:#E4E9F4;" d="M597.074,103.435H548.25c-0.788,0-1.427-0.639-1.427-1.427l0,0c0-0.788,0.639-1.427,1.427-1.427
						h48.823c0.788,0,1.427,0.639,1.427,1.427l0,0C598.501,102.796,597.862,103.435,597.074,103.435z"/>
					<path style="fill:#E4E9F4;" d="M597.074,112.118H548.25c-0.788,0-1.427-0.639-1.427-1.427l0,0c0-0.788,0.639-1.427,1.427-1.427
						h48.823c0.788,0,1.427,0.639,1.427,1.427l0,0C598.501,111.48,597.862,112.118,597.074,112.118z"/>
					<path style="fill:#E4E9F4;" d="M597.074,120.802H548.25c-0.788,0-1.427-0.639-1.427-1.427l0,0c0-0.788,0.639-1.427,1.427-1.427
						h48.823c0.788,0,1.427,0.639,1.427,1.427l0,0C598.501,120.163,597.862,120.802,597.074,120.802z"/>
					<path style="fill:#C2CAEF;" d="M581.677,94.752H548.25c-0.788,0-1.427-0.639-1.427-1.427l0,0c0-0.788,0.639-1.427,1.427-1.427
						h33.426c0.788,0,1.427,0.639,1.427,1.427l0,0C583.104,94.113,582.465,94.752,581.677,94.752z"/>
				</g>
				<g>
					<rect x="518.149" y="214.444" style="fill:#F3F9FF;" width="76.193" height="34.144"/>
					<g>
						<polyline style="fill:none;stroke:#C2CAEF;stroke-width:1.5;stroke-linejoin:round;stroke-miterlimit:10;" points="
							439.355,207.715 439.355,240.242 507.595,240.242 						"/>
						<path style="fill:#C2CAEF;" d="M441.977,207.715c0,1.576-1.278,2.854-2.854,2.854s-2.854-1.278-2.854-2.854
							c0-1.576,1.278-2.854,2.854-2.854S441.977,206.139,441.977,207.715z"/>
						<path style="fill:#C2CAEF;" d="M510.449,240.242c0,1.576-1.278,2.854-2.854,2.854c-1.576,0-2.854-1.278-2.854-2.854
							c0-1.576,1.278-2.854,2.854-2.854C509.171,237.388,510.449,238.666,510.449,240.242z"/>
					</g>
					<path style="fill:#E4E9F4;" d="M582.811,233.312h-57.534c-0.788,0-1.427-0.639-1.427-1.427l0,0
						c0-0.788,0.639-1.427,1.427-1.427h57.534c0.788,0,1.427,0.639,1.427,1.427l0,0
						C584.238,232.673,583.599,233.312,582.811,233.312z"/>
					<path style="fill:#E4E9F4;" d="M582.811,241.996h-57.534c-0.788,0-1.427-0.639-1.427-1.427l0,0
						c0-0.788,0.639-1.427,1.427-1.427h57.534c0.788,0,1.427,0.639,1.427,1.427l0,0
						C584.238,241.357,583.599,241.996,582.811,241.996z"/>
					<path style="fill:#C2CAEF;" d="M550.469,224.629h-25.56c-0.788,0-1.427-0.639-1.427-1.427l0,0c0-0.788,0.639-1.427,1.427-1.427
						h25.56c0.788,0,1.427,0.639,1.427,1.427l0,0C551.895,223.99,551.257,224.629,550.469,224.629z"/>
				</g>
				<g>
					<rect x="544.488" y="159.69" style="fill:#F3F9FF;" width="88.638" height="47.918"/>
					<g>
						<polyline style="fill:none;stroke:#C2CAEF;stroke-width:1.5;stroke-linejoin:round;stroke-miterlimit:10;" points="
							434.611,149.826 485.342,149.826 485.342,167.452 556.933,167.452 						"/>
						<path style="fill:#C2CAEF;" d="M437.464,149.826c0,1.576-1.278,2.854-2.854,2.854s-2.854-1.278-2.854-2.854
							c0-1.576,1.278-2.854,2.854-2.854S437.464,148.249,437.464,149.826z"/>
						<path style="fill:#C2CAEF;" d="M559.787,167.452c0,1.576-1.278,2.854-2.854,2.854c-1.576,0-2.854-1.278-2.854-2.854
							c0-1.576,1.278-2.854,2.854-2.854C558.509,164.598,559.787,165.876,559.787,167.452z"/>
					</g>
					<path style="fill:#E4E9F4;" d="M623.993,178.887h-57.534c-0.788,0-1.427-0.639-1.427-1.427l0,0
						c0-0.788,0.639-1.427,1.427-1.427h57.534c0.788,0,1.427,0.639,1.427,1.427l0,0
						C625.419,178.249,624.781,178.887,623.993,178.887z"/>
					<path style="fill:#E4E9F4;" d="M623.993,187.571h-57.534c-0.788,0-1.427-0.639-1.427-1.427l0,0
						c0-0.788,0.639-1.427,1.427-1.427h57.534c0.788,0,1.427,0.639,1.427,1.427l0,0
						C625.419,186.932,624.781,187.571,623.993,187.571z"/>
					<path style="fill:#E4E9F4;" d="M623.993,196.254h-57.534c-0.788,0-1.427-0.639-1.427-1.427l0,0
						c0-0.788,0.639-1.427,1.427-1.427h57.534c0.788,0,1.427,0.639,1.427,1.427l0,0
						C625.419,195.615,624.781,196.254,623.993,196.254z"/>
					<path style="fill:#C2CAEF;" d="M592.018,170.204h-25.559c-0.788,0-1.427-0.639-1.427-1.427l0,0
						c0-0.788,0.639-1.427,1.427-1.427h25.559c0.788,0,1.427,0.639,1.427,1.427l0,0
						C593.445,169.565,592.806,170.204,592.018,170.204z"/>
				</g>
			</g>
		</g>
		<g>
			<circle style="fill:#F3F9FF;" cx="215.204" cy="120.09" r="47.935"/>
			<path style="fill:none;stroke:#C2CAEF;stroke-width:1.5;stroke-linejoin:round;stroke-miterlimit:10;" d="M247.95,98.01
				c4.258,6.303,6.744,13.901,6.744,22.08c0,21.81-17.681,39.491-39.491,39.491s-39.491-17.681-39.491-39.491
				s17.681-39.491,39.491-39.491c3.338,0,6.58,0.414,9.676,1.194"/>
			<polyline style="fill:none;stroke:#ACB6E8;stroke-width:1.5;stroke-linejoin:round;stroke-miterlimit:10;" points="
				241.751,113.562 215.204,120.09 197.102,109.234 			"/>
			<g>
				
					<line style="fill:none;stroke:#ACB6E8;stroke-width:1.5;stroke-linejoin:round;stroke-miterlimit:10;" x1="215.204" y1="83.262" x2="215.204" y2="90.248"/>
				
					<line style="fill:none;stroke:#ACB6E8;stroke-width:1.5;stroke-linejoin:round;stroke-miterlimit:10;" x1="215.204" y1="148.686" x2="215.204" y2="155.671"/>
				
					<line style="fill:none;stroke:#ACB6E8;stroke-width:1.5;stroke-linejoin:round;stroke-miterlimit:10;" x1="251.408" y1="119.467" x2="244.422" y2="119.467"/>
				
					<line style="fill:none;stroke:#ACB6E8;stroke-width:1.5;stroke-linejoin:round;stroke-miterlimit:10;" x1="185.985" y1="119.467" x2="178.999" y2="119.467"/>
			</g>
			<g>
				
					<line style="fill:none;stroke:#FFFFFF;stroke-width:1.5;stroke-linejoin:round;stroke-miterlimit:10;" x1="198.848" y1="147.796" x2="197.102" y2="150.821"/>
				
					<line style="fill:none;stroke:#FFFFFF;stroke-width:1.5;stroke-linejoin:round;stroke-miterlimit:10;" x1="233.306" y1="88.113" x2="231.559" y2="91.138"/>
			</g>
			<g>
				
					<line style="fill:none;stroke:#FFFFFF;stroke-width:1.5;stroke-linejoin:round;stroke-miterlimit:10;" x1="186.875" y1="135.823" x2="183.85" y2="137.569"/>
				
					<line style="fill:none;stroke:#FFFFFF;stroke-width:1.5;stroke-linejoin:round;stroke-miterlimit:10;" x1="246.558" y1="101.365" x2="243.533" y2="103.111"/>
			</g>
			<g>
				
					<line style="fill:none;stroke:#FFFFFF;stroke-width:1.5;stroke-linejoin:round;stroke-miterlimit:10;" x1="231.559" y1="147.796" x2="233.306" y2="150.821"/>
				
					<line style="fill:none;stroke:#FFFFFF;stroke-width:1.5;stroke-linejoin:round;stroke-miterlimit:10;" x1="197.102" y1="88.113" x2="198.848" y2="91.138"/>
			</g>
			<g>
				
					<line style="fill:none;stroke:#FFFFFF;stroke-width:1.5;stroke-linejoin:round;stroke-miterlimit:10;" x1="243.533" y1="135.823" x2="246.558" y2="137.569"/>
				
					<line style="fill:none;stroke:#FFFFFF;stroke-width:1.5;stroke-linejoin:round;stroke-miterlimit:10;" x1="183.85" y1="101.365" x2="186.875" y2="103.111"/>
			</g>
		</g>
	</g>
	<g>
		<path style="opacity:0.55;fill:#FFF6D2;" d="M520.671,313.931H352.838c-8.376,0-15.166-6.79-15.166-15.165v0
			c0-8.376,6.79-15.165,15.166-15.165h167.833c8.376,0,15.165,6.79,15.165,15.165v0
			C535.837,307.141,529.047,313.931,520.671,313.931z"/>
		<rect x="639.984" y="75.305" style="opacity:0.55;fill:#FFEFE3;" width="60.661" height="29.188"/>
		<rect x="56.705" y="158.421" style="opacity:0.55;fill:#FFEFE3;" width="102.793" height="17.71"/>
		<path style="opacity:0.55;fill:#F7DAD7;" d="M297.192,66.146c0,18.602,15.08,33.682,33.681,33.682V32.464
			C312.271,32.464,297.192,47.544,297.192,66.146z"/>
		<path style="fill:#FFEBD7;" d="M691.091,139.076c10.594,0,19.182-8.588,19.182-19.182H671.91
			C671.91,130.488,680.498,139.076,691.091,139.076z"/>
		<path style="fill:none;stroke:#ACB6E8;stroke-width:1.5;stroke-miterlimit:10;" d="M92.804,133.303
			c0,1.793-1.454,3.247-3.247,3.247c-1.793,0-3.247-1.454-3.247-3.247s1.454-3.247,3.247-3.247
			C91.351,130.056,92.804,131.51,92.804,133.303z"/>
		<path style="fill:none;stroke:#ACB6E8;stroke-width:1.5;stroke-miterlimit:10;" d="M687.449,245.161
			c0,1.793-1.454,3.247-3.247,3.247c-1.793,0-3.247-1.454-3.247-3.247s1.454-3.247,3.247-3.247
			C685.995,241.914,687.449,243.368,687.449,245.161z"/>
		<circle style="fill:none;stroke:#ACB6E8;stroke-width:1.5;stroke-miterlimit:10;" cx="248.869" cy="241.996" r="3.247"/>
		<path style="fill:none;stroke:#ACB6E8;stroke-width:1.5;stroke-miterlimit:10;" d="M521.184,327.083
			c0,1.793-1.454,3.247-3.247,3.247c-1.793,0-3.247-1.454-3.247-3.247c0-1.793,1.454-3.247,3.247-3.247
			C519.73,323.836,521.184,325.29,521.184,327.083z"/>
		<g>
			
				<line style="fill:none;stroke:#ACB6E8;stroke-width:1.5;stroke-miterlimit:10;" x1="227.742" y1="210.055" x2="227.742" y2="216.996"/>
			
				<line style="fill:none;stroke:#ACB6E8;stroke-width:1.5;stroke-miterlimit:10;" x1="231.213" y1="213.526" x2="224.271" y2="213.526"/>
		</g>
		<g>
			
				<line style="fill:none;stroke:#ACB6E8;stroke-width:1.5;stroke-miterlimit:10;" x1="717.589" y1="162.896" x2="717.589" y2="169.837"/>
			
				<line style="fill:none;stroke:#ACB6E8;stroke-width:1.5;stroke-miterlimit:10;" x1="721.06" y1="166.367" x2="714.118" y2="166.367"/>
		</g>
		<g>
			
				<line style="fill:none;stroke:#ACB6E8;stroke-width:1.5;stroke-miterlimit:10;" x1="548.075" y1="43.222" x2="548.075" y2="50.163"/>
			
				<line style="fill:none;stroke:#ACB6E8;stroke-width:1.5;stroke-miterlimit:10;" x1="551.546" y1="46.692" x2="544.604" y2="46.692"/>
		</g>
		<g>
			
				<line style="fill:none;stroke:#ACB6E8;stroke-width:1.5;stroke-miterlimit:10;" x1="547.974" y1="294.074" x2="547.974" y2="301.016"/>
			
				<line style="fill:none;stroke:#ACB6E8;stroke-width:1.5;stroke-miterlimit:10;" x1="551.445" y1="297.545" x2="544.504" y2="297.545"/>
		</g>
		<polygon style="opacity:0.55;fill:#F7DAD7;" points="231.902,58.52 238.696,49.846 224.423,43.278 		"/>
		<polygon style="opacity:0.55;fill:#F7DAD7;" points="95.221,180.551 79.649,165.627 64.077,192.148 		"/>
		<polygon style="fill:#FFEFE3;" points="684.202,344.053 698.308,353.715 707.063,330.963 		"/>
		<polygon style="fill:#FFEFE3;" points="280.802,168.777 272.334,186.328 299.473,192.293 		"/>
	</g>
	<g>
		<g>
			<g>
				<path style="fill:#CC8A4A;" d="M418.082,368.681c0,0,5.924,19.995,7.451,23.56c1.528,3.566,36.57,75.714,36.57,75.714H388.37
					c0,0-29.389-42.452-36.263-58.93c-6.875-16.478-7.639-52.928-7.639-52.928"/>
				<path style="fill:#CC8A4A;" d="M310.858,354.067l-7.619,25.113c0,0-6.943,31.752-3.457,51.958
					c3.486,20.206,5.347,36.818,5.347,36.818h73.125l-8.922-55.929l3-45.628"/>
				<path style="fill:none;stroke:#EAB773;stroke-width:1.5;stroke-miterlimit:10;" d="M322.608,354.067l-7.619,25.113
					c0,0-6.943,31.752-3.458,51.958c3.486,20.206,5.347,36.818,5.347,36.818"/>
				<path style="fill:none;stroke:#000000;stroke-width:1.5;stroke-miterlimit:10;" d="M375.099,448.175
					c-0.195-1.225-3.631-32.553-3.631-32.553"/>
				<path style="fill:none;stroke:#EAB773;stroke-width:1.5;stroke-miterlimit:10;" d="M373.283,375.943l-1.816,24.048
					c0,0,5.694-0.141,7.416-1.754c1.722-1.613,5.591-22.294,5.591-22.294"/>
				<path style="fill:none;stroke:#EAB773;stroke-width:1.5;stroke-miterlimit:10;" d="M396.237,375.943
					c0,0,11.041,18.264,19.171,21.073s14.019,3.436,14.019,3.436"/>
				<path style="fill:none;stroke:#EAB773;stroke-width:1.5;stroke-miterlimit:10;" d="M308.479,411.011l20.776-10.077
					c0,0,9.274-7.387,19.848-29.224"/>
			</g>
			<g>
				<path style="fill:#F9B7B7;" d="M359.264,167.724l-14.66,8.491l2.143,9.244l-5.964,15.353l-17.441,5.539
					c0,0,33.047,22.717,41.763,24.252c11.258,1.982,27.291-17.976,27.291-17.976l-9.308-4.02l5.58-20.991"/>
				<path style="fill:#F9B7B7;" d="M395.219,169.409c-2.73-7.715-5.696-18.191-8.803-23.811c-2.63-4.759-7.188-11.635-12.278-13.768
					c-6.553-2.748-13.875,1.006-20.347,3.541c-10.626,4.163-12.777,16.904-11.279,26.961c1.151,7.725,3.55,15.064,9.204,20.677
					c9.192,9.128,27.984,13.658,38.714,4.243C395.558,182.752,398.241,177.949,395.219,169.409z"/>
				<path d="M372.541,157.859c0.593,1.229,0.312,2.594-0.629,3.048c-0.94,0.454-2.184-0.175-2.777-1.405
					c-0.593-1.229-0.312-2.594,0.629-3.048C370.705,156,371.948,156.629,372.541,157.859z"/>
				<path d="M389.27,152.973c0.593,1.229,0.312,2.594-0.629,3.048c-0.94,0.454-2.184-0.175-2.777-1.405
					c-0.593-1.229-0.312-2.594,0.629-3.048S388.677,151.744,389.27,152.973z"/>
				<path style="fill:none;stroke:#000000;stroke-miterlimit:10;" d="M379.419,153.021c1.792,3.135,4.23,5.841,6.099,8.928
					c0.351,0.58,0.64,1.225,0.644,1.903c0.01,1.98-2.751,2.892-4.207,3.579"/>
				<path style="fill:#DC4F35;" d="M345.068,189.723c0,0,7.948-7.803,8.698-11.687c1.554-8.044-1.439-20.811,0.114-28.855
					c7.945-2.794,13.327-4.686,21.273-7.48c3.001-1.055,6.014-2.116,8.832-3.559c1.977-1.013,3.881-2.238,5.274-3.898
					c1.275-1.519,2.066-3.336,2.7-5.165c0.69-1.992,1.218-4.073,1.057-6.146c-0.367-4.737-4.772-8.84-9.843-9.166
					c-3.381-0.218-6.788,1.26-9.057,3.643c-1.275,1.338-3.275,1.653-4.994,0.973c-0.232-0.092-0.47-0.166-0.713-0.221
					c-1.716-0.39-3.547,0.004-5.213,0.607c-3.69,1.336-6.226,5.732-8.889,8.436c-1.86,1.888-3.7-0.681-7.914,0.686
					c-12.975,4.209-19.372,13.997-21.172,25.25c-1.955,12.226,4.129,25.348,13.722,32.946
					C340.811,187.566,345.068,189.723,345.068,189.723z"/>
				<path style="fill:none;stroke:#000000;stroke-miterlimit:10;" d="M362.103,188.727c3.681,3.286,14.913,6.768,25.021,1.198"/>
				<path style="fill:none;stroke:#000000;stroke-miterlimit:10;" d="M360.794,154.795c0.654-1.689,1.355-3.421,2.624-4.714
					c1.866-1.902,4.108-1.787,6.432-0.963"/>
				<path style="fill:none;stroke:#000000;stroke-miterlimit:10;" d="M381.733,145.702c0.184-0.941,0.609-1.936,1.253-2.658
					c1.733-1.939,3.952-0.326,5.334,1.165"/>
				<g>
					<path style="fill:none;stroke:#A84F4F;stroke-width:1.5;stroke-miterlimit:10;" d="M377.852,157.655
						c1.214,3.992-1.039,8.212-5.031,9.426c-3.992,1.214-8.212-1.039-9.426-5.031c-1.214-3.992,1.039-8.212,5.031-9.426
						C372.419,151.411,376.638,153.663,377.852,157.655z"/>
					<path style="fill:none;stroke:#A84F4F;stroke-width:1.5;stroke-miterlimit:10;" d="M394.348,152.64
						c1.214,3.992-0.19,7.954-3.135,8.849c-2.945,0.895-6.316-1.615-7.53-5.607c-1.214-3.992,0.19-7.954,3.135-8.849
						C389.763,146.138,393.135,148.648,394.348,152.64z"/>
					
						<line style="fill:none;stroke:#A84F4F;stroke-width:1.5;stroke-miterlimit:10;" x1="383.27" y1="153.663" x2="376.785" y2="155.635"/>
					
						<line style="fill:none;stroke:#A84F4F;stroke-width:1.5;stroke-miterlimit:10;" x1="363.158" y1="160.951" x2="349.759" y2="171.234"/>
				</g>
				<g>
					<path style="fill:#F9B7B7;" d="M358.951,169.714c-1.393-3.588-7.307-4.644-10.096-2.32c-6.707,5.587,0.937,18.46,8.591,17.17
						c2.166-0.365,4.786-2.227,4.666-4.786"/>
					<line style="fill:none;stroke:#000000;stroke-miterlimit:10;" x1="350.543" y1="173.762" x2="359.368" y2="177.35"/>
					<path style="fill:none;stroke:#000000;stroke-miterlimit:10;" d="M353.918,166.499c1.97,0.382,3.825,1.399,5.246,2.875"/>
					<path style="fill:none;stroke:#000000;stroke-miterlimit:10;" d="M348.598,180.404c2.073,2.593,5.245,4.981,8.654,4.339
						c2.366-0.445,4.565-2.355,4.634-5.003"/>
				</g>
				<path style="fill:none;stroke:#000000;stroke-miterlimit:10;" d="M377.614,169.843c0.339,1.883,1.103,5.679,4.892,4.323
					c1.173-0.42,2.166-1.316,2.69-2.213"/>
			</g>
			<g>
				<path style="fill:#4C4139;" d="M332.838,202.39c0,0,21.417,26.202,37.247,25.487c10.512-0.475,18.505-16.894,18.505-16.894
					s19.973,2.71,26.556,6.214c6.583,3.504-3.222,54.754-0.723,72.247c2.499,17.493,9.051,89.736,9.051,89.736H301.742
					c0,0-15.186-87.237-12.25-119.951c2.936-32.714,12.513-48.214,19.396-52.149C315.77,203.145,332.838,202.39,332.838,202.39z"/>
				<path style="fill:none;stroke:#635245;stroke-width:1.5;stroke-miterlimit:10;" d="M323.342,205.021
					c8.301,11.573,22.981,25.685,35.802,31.885c6.894,3.334,18.3,2.692,24.881-1.116c8.232-4.762,16.048-22.548,16.048-22.548"/>
			</g>
			<g>
				<path style="fill:#4C4139;" d="M413.249,216.438c6.345,2.366,12.349,6.126,16.29,11.632c4.108,5.739,5.674,12.876,6.839,19.837
					c2.432,14.526,3.524,29.275,3.284,44.001c-0.234,14.365-0.945,31.365-4.034,45.468c-3.683,16.818-14.511,27.206-32.061,27.548
					c-16.641,0.325-33.48-5.94-48.824-11.78c-8.609-3.277-17.141-6.815-25.488-10.717l17.715-43.593l46.825,8.383
					c0,0,8.716-45.003,17.002-59.1"/>
				<path style="fill:none;stroke:#635245;stroke-width:1.5;stroke-miterlimit:10;" d="M407.64,254.999
					c7.846-6.347,17.871-10.133,28.03-9.486"/>
				<path style="fill:none;stroke:#000000;stroke-width:1.5;stroke-miterlimit:10;" d="M346.97,298.833l46.825,8.383
					c0,0,8.716-45.003,17.002-59.1"/>
				<path style="fill:none;stroke:#000000;stroke-width:1.5;stroke-miterlimit:10;" d="M421.494,359.845
					c-4.864,3.169-10.848,4.941-17.926,5.079c-16.641,0.325-33.48-5.94-48.824-11.78c-8.609-3.277-17.141-6.815-25.488-10.717"/>
				<path style="fill:none;stroke:#000000;stroke-width:1.5;stroke-miterlimit:10;" d="M392.755,307.031
					c8.779,1.498,17.335,4.208,25.327,8.024"/>
			</g>
			<g>
				<g>
					<path style="fill:#F9B7B7;" d="M350.272,215.354c4.386-5.673,8.388-11.655,13.157-17.025c3.366-3.791,7.254-7.129,11.576-9.787
						c4.26-2.62,9.305-5.076,14.334-5.538c3.294-0.302,5.963,1.8,8.293,3.842c1.371,1.202,2.743,2.403,4.114,3.605
						c0.265,0.232,0.546,0.492,0.609,0.839c0.132,0.729-0.726,1.218-1.445,1.396c-1.109,0.275-1.74-0.108-2.881-0.165
						c0.908,0.526,1.592,1.59,1.918,2.34c0.484,1.114,0.367,1.565-0.221,2.663c1.149,0.259,2.029,1.141,2.328,2.285
						c0.293,1.121,0.049,2.325-0.416,3.386c-0.122,0.279-0.263,0.573-0.219,0.874c0.053,0.368,0.359,0.635,0.612,0.91
						c5.038,5.483-3.259,12.196-7.858,14.293c-0.323,0.147-0.664,0.292-1.017,0.268c-0.634-0.044-1.12-0.639-1.251-1.261
						c-0.131-0.622,0.01-1.266,0.151-1.886c-6.671,6.988-6.56,15.408-15.358,19.397"/>
					<path style="fill:none;stroke:#000000;stroke-miterlimit:10;" d="M350.272,215.354c4.386-5.673,8.388-11.655,13.157-17.025
						c3.366-3.791,7.254-7.129,11.576-9.787c4.26-2.62,9.305-5.076,14.334-5.538c3.294-0.302,4.234,0.797,4.234,0.797"/>
					<path style="fill:none;stroke:#000000;stroke-miterlimit:10;" d="M398.57,192.722c-2.762-1.615-3.809-2.444-6.983-3.009
						c-3.182-0.566-7.36,0.501-10.056,2.128"/>
					<path style="fill:none;stroke:#000000;stroke-miterlimit:10;" d="M399.726,197.525c0,0-3.451-1.159-8.098-0.613
						c-2.733,0.321-6.343,1.84-6.343,1.84"/>
					<path style="fill:none;stroke:#000000;stroke-miterlimit:10;" d="M401.419,204.07c-2.257-0.445-4.595-0.526-6.861-0.095
						c-2.131,0.406-4.038,1.429-5.968,2.376"/>
					<line style="fill:none;stroke:#000000;stroke-miterlimit:10;" x1="392.055" y1="216.393" x2="399.174" y2="210.092"/>
				</g>
				<path style="fill:#4C4139;" d="M314.521,205.021c-9.064,2.079-31.372,9.55-38.08,34.115c-6.26,22.926-3.224,46.185,0.645,64.784
					c3.869,18.599,15.567,54.721,32.646,58.463c23.814,5.218,35.305-2.49,54.848-52.611c19.543-50.121,25.47-76.48,25.47-76.48
					l-42.036-20.665c0,0-42.946,64.512-47.297,86.65"/>
				
					<line style="fill:none;stroke:#635245;stroke-width:1.5;stroke-miterlimit:10;" x1="335.193" y1="232.607" x2="382.334" y2="255.952"/>
				<path style="fill:none;stroke:#000000;stroke-width:1.5;stroke-miterlimit:10;" d="M348.014,212.627
					c0,0-42.946,64.512-47.297,86.65"/>
				<path style="fill:none;stroke:#000000;stroke-width:1.5;stroke-miterlimit:10;" d="M297.191,353.338
					c3.761,4.704,7.957,8.04,12.54,9.045c23.814,5.218,35.305-2.49,54.848-52.611c19.543-50.121,25.47-76.48,25.47-76.48"/>
				<path style="fill:none;stroke:#635245;stroke-width:1.5;stroke-miterlimit:10;" d="M282.336,226.786
					c6.886-0.453,13.778,1.643,19.826,5.089c6.048,3.445,11.318,8.194,16.165,13.287"/>
				<path style="fill:none;stroke:#000000;stroke-width:1.5;stroke-miterlimit:10;" d="M316.581,239.112
					c1.753,5.735,3.819,17.561,3.819,17.561"/>
			</g>
		</g>
		<g>
			<g>
				<path style="fill:#9ED1A8;" d="M154.61,442.374c4.189-25.382,3.807-50.782,3.338-76.382
					c-0.481-26.252-1.146-52.574-4.485-78.576c-2.069-16.109-5.213-31.978-9.815-47.547c-0.154,1.986-0.731,3.938-1.68,5.679
					c-0.337,0.618-0.772,1.252-1.434,1.464c-4.608,1.473-4.869-14.001-4.904-16.268c-0.049-3.225,0.184-6.49-0.456-9.648
					c-0.542-2.672-1.693-5.175-2.977-7.569c-3.337-6.22-7.644-11.895-12.712-16.748c-2.607-2.496-5.6-4.863-9.138-5.391
					c-8.517-1.273-14.68,8.302-16.611,15.653c-2.178,8.294-2.405,18.328-0.798,26.712c3.396,17.714,3.676,36.051,5.865,54.019
					c2.221,18.233,5.133,36.375,8.629,54.398c6.471,33.355,12.678,66.776,18.619,100.257"/>
				<path style="fill:#9ED1A8;" d="M167.604,452.417c15.921-27.196,31.949-54.634,40.646-83.833
					c8.697-29.2,9.631-60.672-4.27-88.362c-2.62-5.219-7.412-16.254-15.767-16.944c-11.428-0.944-13.453,7.615-15.451,14.542
					c-2.921,10.127-5.677,20.284-8.265,30.467c-11.165,43.925-19.251,87.842-18.449,132.709"/>
				<path style="fill:none;stroke:#D7EACA;stroke-miterlimit:10;" d="M188.805,295.322c-1.608,52.182-10.083,104.277-25.239,155.125
					"/>
				<path style="fill:none;stroke:#D7EACA;stroke-miterlimit:10;" d="M112.269,223.482c15.423,70.243,21.574,144.912,27.646,219.027
					"/>
				<path style="fill:none;stroke:#D7EACA;stroke-miterlimit:10;" d="M96.013,247.988c0,0,19.708,30.667,27.314,35.978"/>
				<path style="fill:none;stroke:#D7EACA;stroke-miterlimit:10;" d="M134.218,376.194c0,0-20.4-25.099-26.785-34.026"/>
				<path style="fill:none;stroke:#D7EACA;stroke-miterlimit:10;" d="M128.556,322.704c0,0,18.571-31.775,23.055-47.877"/>
				<path style="fill:none;stroke:#D7EACA;stroke-miterlimit:10;" d="M121.332,268.546c0,0,9.999-35.126,10.866-55.021"/>
				<path style="fill:none;stroke:#D7EACA;stroke-miterlimit:10;" d="M181.946,367.299c0,0,29.303-30.11,32.962-42.535"/>
				<path style="fill:none;stroke:#D7EACA;stroke-miterlimit:10;" d="M184.166,351.938c0,0-18.365-16.901-20.938-22.437"/>
				<g>
					<path style="fill:#9ED1A8;" d="M77.332,366.62c-5.764-8.809-11.896-17.436-19.38-24.551
						c-7.484-7.115-16.445-12.692-26.238-14.538c-1.614-0.304-3.332-0.494-4.839,0.203c-2.83,1.31-3.805,5.151-3.854,8.495
						c-0.125,8.41,2.801,16.092,5.959,23.727c3.409,8.241,7.18,16.332,11.299,24.241c7.452,0.572,14.666,3.852,19.997,9.091
						c1.134,1.115,2.264,2.594,1.895,4.141c-0.438,1.838-2.658,2.545-4.537,2.748c-2.728,0.294-8.198-0.259-8.198-0.259
						s8.468,15.623,50.263,48.389l17.213-7.797C105.547,414.784,92.547,389.871,77.332,366.62z M54.768,353.097
						c-0.246,3.439-3.677,0.045-4.711-1.03c-2.083-2.166-4.681-5.059-5.783-7.891c-0.462-1.188-1.162-4.149,0.353-4.781
						c1.401-0.585,4.285,1.744,5.174,2.612c2.771,2.708,4.846,6.592,4.977,10.498C54.784,352.721,54.78,352.918,54.768,353.097z"/>
					<path style="fill:none;stroke:#D7EACA;stroke-miterlimit:10;" d="M38.259,344.433c23.328,33.733,48.042,76.019,73.745,107.643"
						/>
					<path style="fill:none;stroke:#D7EACA;stroke-miterlimit:10;" d="M33.808,371.003c8.833,2.571,19.685,7.874,29.724,11.611"/>
					<path style="fill:none;stroke:#D7EACA;stroke-miterlimit:10;" d="M55.952,408.521c0,0,15.648,1.462,26.424,2.785"/>
					<path style="fill:none;stroke:#D7EACA;stroke-miterlimit:10;" d="M58.871,375.434c0,0,0.359-20.77-0.919-33.366"/>
				</g>
				<path style="fill:#9ED1A8;" d="M123.463,380.664c-4.709-23.27-10.885-46.286-18.783-68.676
					c-5.16-14.631-10.91-29.736-21.677-41.25c0.047,2.94-0.482,5.888-1.546,8.629c-0.976,2.513-4.037,5.24-6.037,1.874
					c-1.901-3.199-1.259-8.643-0.902-12.147c0.247-2.425,1.095-4.942,0.601-7.386c-0.926-4.576-4.862-9.452-8.01-12.759
					c-3.423-3.596-7.633-6.49-12.408-7.948c-2.531-0.773-5.302-1.133-7.803-0.266c-5.002,1.733-7.158,7.479-8.69,12.547
					c-1.172,3.876-1.699,6.927-0.085,10.836c2.423,5.871,6.67,10.935,9.507,16.632c1.616,3.245,5.296,9.05,3.296,12.708
					c-4.376-1.011-7.719-4.438-10.797-7.708c1.503,5.957,5.591,20.034,6.264,21.93c12.137,34.148,23.882,52.779,39.864,85.251
					c2.569,5.22,5.147,10.436,7.734,15.648c7.188,14.483,12.935,29.849,18.44,45.093l21.705-6.939
					C130.271,424.748,127.895,402.56,123.463,380.664z M70.97,327.08c-0.565,0.035-1.098-0.283-1.585-0.612
					c-3.832-2.596-6.854-6.421-9.573-10.39c-1.691-2.469-3.475-5.25-4.298-8.272c-1.063-3.903,0.994-7.085,4.469-4.056
					c4.387,3.824,9.24,7.142,11.408,13.227C72.881,321.157,74.09,326.885,70.97,327.08z"/>
				<path style="fill:none;stroke:#000000;stroke-linejoin:round;stroke-miterlimit:10;" d="M156.757,336.954
					c0.934,36.861-0.203,73.807-3.403,110.553"/>
				<path style="fill:none;stroke:#D7EACA;stroke-miterlimit:10;" d="M57.542,262.037c23.581,52.777,50.717,121.573,64.032,179.57"
					/>
				<path style="fill:none;stroke:#D7EACA;stroke-miterlimit:10;" d="M55.952,331.889c0,0,29.67,14.262,38.646,21.235"/>
				<path style="fill:none;stroke:#D7EACA;stroke-miterlimit:10;" d="M107.989,392.42c0,0-21.17-9.562-30.456-13.048"/>
				<path style="fill:none;stroke:#000000;stroke-linejoin:round;stroke-miterlimit:10;" d="M64.635,349.181
					c0,0,23.932,59.445,45.172,93.96"/>
				<path style="fill:none;stroke:#D7EACA;stroke-miterlimit:10;" d="M86.643,331.889c0,0,9.562-20.297,11.177-34.25"/>
				<path style="fill:none;stroke:#000000;stroke-linejoin:round;stroke-miterlimit:10;" d="M88.466,275.785
					c29.162,60.151,34.816,113.636,47.076,167.355"/>
			</g>
			
				<rect x="71.83" y="433.677" transform="matrix(-1 -1.224647e-16 1.224647e-16 -1 251.0947 900.9019)" style="fill:#EBEEF7;" width="107.435" height="33.548"/>
		</g>
		<g>
			<g>
				<path style="fill:#FFE689;" d="M227.48,346.418c10.381,42.256,26.759,121.538,26.759,121.538H133.332l-19.239-111.609
					l26.43-43.16c0,0,19.319-5.124,22.28-7.811c2.961-2.687,36.246,2.564,36.246,2.564l22.981,8.66L227.48,346.418z"/>
				<g>
					<path style="fill:#A85C47;" d="M277.649,334.303c4.59-15.798,11.299-26.663,17.82-33.961
						c6.375-7.135,12.659-13.985,20.693-19.137c1.77-1.135,3.572-2.218,5.399-3.259c2.204-1.256,4.431-2.523,6.859-3.257
						c0.603-0.182,1.366-0.286,1.766,0.2c0.21,0.255,0.252,0.606,0.256,0.936c0.041,3.063-2.334,5.554-4.546,7.674
						c-2.056,1.97-4.111,3.941-6.167,5.911c-2.025,1.942-4.117,3.982-5.063,6.624c1.47-1.266,3.723-1.53,5.445-0.638
						c1.723,0.892,2.807,2.884,2.622,4.815c1.414-0.809,3.292-0.724,4.627,0.209c1.336,0.933,2.061,2.667,1.788,4.273
						c0.728-0.39,2.536,0.08,3.167,0.613c3.1,2.62,0.769,7.038-0.665,10.001c-0.973,2.01-3.089,4.789-4.554,4.217
						c-2.663,4.09-4.148,9.245-6.919,12.328c-4.247,4.724-7.504,7.516-10.047,13.51"/>
					<path style="fill:#A85C47;stroke:#000000;stroke-miterlimit:10;" d="M293.948,307.366c3.496-4.156,8.964-5.977,14.143-7.611
						c2.071-0.653,4.142-1.307,6.212-1.96c0.549-0.173,1.183-0.338,1.671-0.031c0.39,0.245,0.561,0.723,0.641,1.177
						c0.458,2.582-1.211,5.103-3.246,6.756c-2.035,1.654-4.479,2.751-6.496,4.427c-0.441,0.366-0.869,0.772-1.119,1.288
						c-0.5,1.031-0.192,2.25,0.075,3.365c1.775,7.395,1.314,15.312-1.307,22.451"/>
					<path style="fill:none;stroke:#000000;stroke-miterlimit:10;" d="M322.55,300.259c-0.293,1.019-0.586,2.038-0.879,3.057
						c-0.432,1.501-0.865,3.007-1.485,4.441c-0.689,1.593-1.728,3.193-3.359,3.785c-1.242,0.451-2.7,0.215-3.761-0.572
						s-1.707-2.091-1.732-3.412"/>
					<path style="fill:none;stroke:#000000;stroke-miterlimit:10;" d="M329.148,304.693c-0.528,2.207-1.298,4.747-2.333,6.766
						c-0.501,0.977-1.067,1.938-1.847,2.711s-1.799,1.35-2.895,1.419c-1.175,0.074-4.024-0.35-5.246-4.046"/>
					<path style="fill:none;stroke:#000000;stroke-miterlimit:10;" d="M322.877,315.54c0.471,0.92,1.094,1.763,1.834,2.484
						c0.682,0.665,1.596,1.297,2.619,1.292"/>
				</g>
				<path style="fill:#FFE689;" d="M191.706,307.139c9.248,0.973,18.537,1.954,27.533,4.305c12.39,3.238,21.384,8.338,27.993,19.579
					c3.759,6.395,17.66,30.857,17.66,30.857l14.061-35.634l43.514,14.866c0,0-18.269,66.465-22.103,77.01
					c-3.835,10.546-12.783,26.524-26.843,25.565c-14.061-0.959-21.091-7.35-30.358-21.411
					c-9.267-14.061-34.324-55.604-34.324-55.604"/>
				<g>
					<path style="fill:none;stroke:#CC8A4A;stroke-width:1.5;stroke-miterlimit:10;" d="M226.536,358.473h-26.132
						c0,0,3.043,15.47,4.605,19.288c1.563,3.819,5.63,8.81,14.688,8.81s10.941-5.915,10.092-11.831
						C228.939,368.825,226.536,358.473,226.536,358.473z"/>
					
						<line style="fill:none;stroke:#CC8A4A;stroke-width:1.5;stroke-miterlimit:10;" x1="202.073" y1="364.655" x2="227.742" y2="364.655"/>
				</g>
				<path style="fill:none;stroke:#CC8A4A;stroke-width:1.5;stroke-miterlimit:10;" d="M148.066,310.768
					c2.425,11.211,12.654,16.82,23.021,18.37"/>
				<path style="fill:none;stroke:#CC8A4A;stroke-width:1.5;stroke-miterlimit:10;" d="M179.589,330.115
					c7.85,0.666,16.448-1.313,21.334-6.696c4.311-4.748,4.654-8.743,3.738-14.597"/>
				<path style="fill:none;stroke:#000000;stroke-width:1.5;stroke-miterlimit:10;" d="M245.351,425.823
					c0,0-12.95-66.272-12.95-76.481"/>
				<path style="fill:none;stroke:#000000;stroke-width:1.5;stroke-miterlimit:10;" d="M264.892,361.881
					c0,0-16.024,29.157-16.024,39.054"/>
				
					<line style="fill:none;stroke:#CC8A4A;stroke-width:1.5;stroke-miterlimit:10;" x1="273.716" y1="339.519" x2="318.06" y2="357.041"/>
			</g>
			<g>
				<path style="fill:#A85C47;" d="M167.677,276.84l-12.464,10.483l3.57,8.394l-3.087,15.53c0,0,8.29,13.114,25.306,13.114
					c17.016,0,17.884-12.897,17.884-12.897l-2.153-20.324"/>
				<path style="fill:#A85C47;" d="M208.622,280.259c-0.353-7.859-2.961-16.139-5.274-21.863
					c-1.958-4.846-5.511-11.937-10.121-14.562c-5.935-3.382-13.358-0.648-19.827,1.021c-10.623,2.741-14.152,14.651-13.888,24.421
					c0.203,7.506,1.642,14.787,6.387,20.799c7.714,9.776,23.635,16.717,35.075,9.138
					C207.188,295.096,208.964,287.875,208.622,280.259z"/>
				<path d="M188.778,269.881c0.675,1.125,0.524,2.456-0.337,2.973c-0.861,0.516-2.106,0.022-2.781-1.103s-0.524-2.456,0.337-2.972
					C186.859,268.262,188.104,268.755,188.778,269.881z"/>
				<path d="M204.916,265.739c0.675,1.125,0.524,2.456-0.337,2.972c-0.861,0.516-2.106,0.022-2.781-1.103s-0.524-2.456,0.337-2.972
					C202.996,264.12,204.241,264.614,204.916,265.739z"/>
				<path style="fill:none;stroke:#000000;stroke-miterlimit:10;" d="M196.733,265.488c0,0,2.555,5.614,3.893,7.385
					c0.988,1.307,2.852,3.289,1.136,4.816c-1.072,0.953-4.132,1.858-4.132,1.858"/>
				<path style="fill:#FFFFFF;" d="M200.018,284.299l-8.518-3.046c0,0-2.387,8.195,0.913,9.538
					C197.744,292.962,200.018,284.299,200.018,284.299z"/>
				<path style="fill:#21212D;" d="M158.783,295.717c0,0,3.271-14.77,2.003-22.833c6.376-0.4,12.501-3.792,16.222-8.984
					c1.647-2.297,2.829-4.896,4.42-7.232c3.617-5.309,9.993-8.153,16.418-8.153c1.552,2.129,3.546,5.222,4.598,7.87
					c5.596-4.109,7.061-12.178,6.487-19.097c-0.313-3.77-1.734-7.502-4.307-10.276c-2.573-2.774-6.341-4.505-10.118-4.278
					c-6.697,0.401-11.567,6.334-17.581,9.307c-6.087,3.009-13.301,2.923-19.513,5.663c-8.543,3.768-15.263,12.266-17.88,21.08
					c-1.85,6.231-1.522,13.085,0.915,19.111c1.896,4.688,5.058,8.851,9.035,11.97C150.214,290.439,158.783,295.717,158.783,295.717z
					"/>
				<g>
					<path style="fill:#A85C47;" d="M171.137,277.178c-1.029-4.041-7.251-5.948-10.555-3.814
						c-7.943,5.133-1.404,19.975,6.997,19.587c2.377-0.11,5.438-1.769,5.643-4.538"/>
					<line style="fill:none;stroke:#000000;stroke-miterlimit:10;" x1="161.566" y1="280.434" x2="170.588" y2="285.445"/>
					<path style="fill:none;stroke:#000000;stroke-miterlimit:10;" d="M166.144,273.063c2.069,0.668,3.931,2.004,5.267,3.777"/>
					<path style="fill:none;stroke:#000000;stroke-miterlimit:10;" d="M158.607,287.323c1.89,3.059,4.99,6.041,8.74,5.797
						c2.602-0.17,5.217-1.936,5.637-4.775"/>
				</g>
				<path style="fill:none;stroke:#000000;stroke-miterlimit:10;" d="M179.879,300.381c0.325,0.088,8.672,4.798,19.006,0.4"/>
				<path style="fill:none;stroke:#000000;stroke-miterlimit:10;" d="M197.71,248.15c1.756-0.262,3.525-0.682,5.043-1.604
					c1.518-0.921,2.767-2.411,3.05-4.164"/>
				<path style="fill:#21212D;" d="M187.182,260.487c-2.046,0.083-5.558,2.216-6.22,2.736c-0.639,0.503-2.027,2.493,0.077,2.266
					c1.224-0.133,1.231,0.072,2.29-0.421c1.317-0.613,2.832-0.805,4.184-1.344c0.738-0.294,1.138-1.195,1.152-1.88
					C188.684,260.802,188.072,260.451,187.182,260.487z"/>
				<path style="fill:#21212D;" d="M198.07,257.991c1.441-0.772,4.688-0.299,5.346-0.104c0.883,0.263,1.626,0.965,1.748,1.943
					c0.081,0.648-0.784,1.007-1.272,0.905c-1.841-0.384-2.964,0.201-4.791,0.317c-0.623,0.04-1.249-0.609-1.525-1.222
					C197.157,258.898,197.443,258.327,198.07,257.991z"/>
			</g>
			<g>
				<g>
					<path style="fill:#19151E;" d="M283.765,439.838l-46.123-4.995c-1.197-0.13-1.914-1.237-1.601-2.473l15.268-60.272
						c0.313-1.236,1.537-2.133,2.734-2.003l46.123,4.995c1.197,0.13,1.914,1.237,1.601,2.473L286.5,437.835
						C286.187,439.071,284.962,439.968,283.765,439.838z"/>
					<path style="fill:#342E3D;" d="M287.039,440.193l-46.123-4.995c-1.197-0.13-1.914-1.237-1.601-2.473l15.268-60.272
						c0.313-1.236,1.537-2.133,2.734-2.003l46.123,4.995c1.197,0.13,1.914,1.237,1.601,2.473l-15.268,60.272
						C289.461,439.425,288.236,440.322,287.039,440.193z"/>
					<path style="fill:none;stroke:#554C63;stroke-miterlimit:10;" d="M265.77,388.44l-8.939-0.968
						c-0.74-0.08-1.183-0.765-0.99-1.529l2.198-8.678c0.194-0.764,0.951-1.319,1.691-1.239l8.939,0.968
						c0.74,0.08,1.183,0.765,0.99,1.529l-2.198,8.678C267.267,387.966,266.51,388.521,265.77,388.44z"/>
					<path style="fill:#19151E;" d="M263.837,380.689c-0.265,1.046-1.301,1.806-2.315,1.696c-1.013-0.11-1.62-1.047-1.355-2.093
						c0.265-1.046,1.301-1.806,2.315-1.696C263.495,378.706,264.102,379.643,263.837,380.689z"/>
					<path style="opacity:0.35;fill:#554C63;" d="M278.081,401.681c-0.406,1.434-2.494,2.262-4.663,1.849
						c-2.169-0.412-3.598-1.909-3.191-3.343c0.406-1.434,2.494-2.262,4.663-1.849C277.059,398.751,278.487,400.247,278.081,401.681z
						"/>
				</g>
				<g>
					<path style="fill:#A85C47;" d="M205.802,421.146c6.013-0.807,11.969-2.041,17.809-3.688c4.817-1.358,10.253-3.257,13.825-6.917
						c1.172-1.201,2.125-2.594,3.059-3.988c0.381-0.568,0.873-1.202,1.557-1.199c0.483,0.002,0.899,0.335,1.226,0.689
						c1.283,1.389,1.332,3.263,0.937,5.111c-0.411,1.924-1.226,3.653-2.391,5.238c-1.165,1.585-2.255,3.421-2.083,5.381
						c0.059,0.67,6.25,0.018,6.765-0.05c2.615-0.343,5.171-1.048,7.675-1.86c4.646-1.507,9.223-3.386,14.068-4
						c1.133-0.143,2.616,0.003,2.933,1.1c0.358,1.238-1.134,2.134-1.82,3.225c1.009,0.237,2.035-0.201,3.045-0.437
						c1.009-0.237,2.272-0.172,2.819,0.709c0.692,1.114-0.289,2.497-1.242,3.397c1.383,0.753,1.106,2.879,0.204,4.17
						c-0.902,1.291-2.929,3.063-2.929,3.063s2.703-0.504,2.113,1.581c-0.046,0.162-0.153,0.299-0.262,0.427
						c-6.675,7.841-13.113,13.965-22.532,18.128c-4.629,2.046-9.55,3.313-16.415,4.813c-7.077,1.546-14.972,2.632-22.116,3.833"/>
					<path style="fill:none;stroke:#000000;stroke-miterlimit:10;" d="M241.718,421.881c-4.292-0.153-7.905-0.162-12.031-0.153"/>
					<path style="fill:none;stroke:#000000;stroke-miterlimit:10;" d="M269.363,420.188c-2.619,2.477-5.971,4.068-9.262,5.618
						c-1.446,0.681-2.893,1.363-4.369,1.983c-3.708,1.559-7.583,2.728-11.518,3.623"/>
					<path style="fill:none;stroke:#000000;stroke-miterlimit:10;" d="M274.443,423.377c-7.946,6.811-16.818,12.134-26.178,15.707"
						/>
					<path style="fill:none;stroke:#000000;stroke-miterlimit:10;" d="M272.235,430.115c-6.764,5.918-14.347,10.995-22.639,14.509"
						/>
				</g>
				<path style="fill:#FFE689;" d="M145.493,311.932c-18.728,4.916-28.582,4.916-41.174,24.022
					c-8.226,12.482-8.941,28.536-8.822,43.492c0.133,16.637,1.306,33.342,4.568,49.603c2.834,14.123,6.95,38.906,33.279,38.906
					c18.058,0,85.891,0,85.891,0l-10.397-47.481l-54.372-2.426c0,0-10.703-51.267-14.639-59.547"/>
				<path style="fill:none;stroke:#000000;stroke-width:1.5;stroke-miterlimit:10;" d="M156.695,418.148
					c0,0-17.985-1.054-24.498,2.327"/>
				
					<line style="fill:none;stroke:#CC8A4A;stroke-width:1.5;stroke-miterlimit:10;" x1="197.909" y1="467.956" x2="188.912" y2="418.784"/>
				<path style="fill:none;stroke:#000000;stroke-width:1.5;stroke-miterlimit:10;" d="M139.827,358.502
					c3.936,8.279,14.639,59.547,14.639,59.547l54.372,2.426"/>
			</g>
		</g>
		<g>
			<g>
				<path style="fill:#A2BDFF;" d="M575.58,332.39c-2.017-1.732-4.008-3.353-4.485-5.999c-0.984-5.45,1.463-10.965,5.653-14.651
					c8.719-7.672,20.118-12.603,31.985-13.836c5.218-0.542,10.489-0.389,15.728-0.072c10.887,0.66,21.97,2.096,31.702,6.736
					c9.731,4.639,17.997,12.983,19.773,23.108c0.956,5.45,1.121,11.958-2.258,16.738c-1.861,2.633-4.724,4.536-7.807,5.794
					c-6.576,2.684-14.217,3.272-21.304,3.231"/>
				<path style="fill:#F9B7B7;" d="M615.673,298.445l13.57,9.005l-2.597,8.744l-0.145,14.778l16.411,6.335
					c0,0-33.038,19.866-41.491,20.829c-10.918,1.244-26.103-25.554-26.103-25.554l5.6-3.282l5.376-13.487"/>
				<path style="fill:#F9B7B7;" d="M578.331,297.089c2.607-7.422,5.436-17.5,8.41-22.91c2.518-4.581,6.884-11.201,11.772-13.263
					c6.293-2.657,13.341,0.936,19.567,3.359c10.224,3.978,12.32,16.222,10.902,25.893c-1.089,7.429-3.38,14.489-8.802,19.898
					c-8.816,8.795-26.871,13.192-37.207,4.164C578.035,309.916,575.445,305.304,578.331,297.089z"/>
				<path style="fill:#4C4139;" d="M621.117,289.496c-5.368,1.759-10.333,5.091-14.22,9.543c-0.329,0.377-0.682,0.781-1.144,0.893
					c-0.346,0.084-0.7-0.011-1.038-0.107c-7.837-2.214-24.522-8.28-24.522-8.28s-1.761,4.899-2.263,6.679
					c-1.103,3.907-3.645,10.392-2.666,14.346c1.421,5.736,11.037,9.295,16.96,10.134c7.118,1.008,11.126,0.903,17.112-2.701
					c5.916-3.562,18.43-13.432,18.43-13.432"/>
				<path d="M599.622,288.668c-0.567,1.183-0.294,2.494,0.611,2.928c0.905,0.434,2.099-0.173,2.666-1.357
					c0.567-1.183,0.294-2.494-0.611-2.928C601.384,286.878,600.19,287.485,599.622,288.668z"/>
				<path d="M584.659,282.548c-0.568,1.183-0.294,2.494,0.611,2.928c0.905,0.434,2.099-0.173,2.666-1.356
					c0.568-1.183,0.294-2.494-0.611-2.928C586.42,280.758,585.227,281.365,584.659,282.548z"/>
				<path style="fill:none;stroke:#000000;stroke-miterlimit:10;" d="M593.48,281.297c-1.097,1.781-2.292,3.502-3.579,5.151
					c-1.121,1.437-2.683,2.809-3.273,4.573c-0.816,2.44,2.674,3.417,4.302,4.131"/>
				<path style="fill:#4C4139;" d="M626.586,316.505c0,0-7.658-7.483-8.387-11.215c-0.94-4.81,0.268-9.744,0.258-14.582
					c-0.005-2.244-0.192-4.758-1.202-6.787c-1.134-2.279-3.155-4.21-5.14-5.748c-3.099-2.402-6.733-4.489-10.262-6.177
					c-1.886-0.902-5.876-2.419-7.967-2.468c-3.677,0.946-6.675,4.439-9.05,8.737c-3.445-6.906-4.88-14.937-3.24-22.477
					c0.211-0.97,0.47-1.946,0.974-2.801c1.125-1.911,3.346-2.965,5.548-3.231c2.202-0.266,4.423,0.145,6.603,0.55
					c0.66,0.123,1.352,0.243,1.991,0.038c1.055-0.339,1.636-1.43,2.206-2.38c2.376-3.957,6.779-6.999,11.372-6.542
					c0.802,0.08,1.604,0.266,2.31,0.655c3.261,1.795,3.048,6.708,5.569,9.446c0.183,0.198,0.39,0.391,0.65,0.464
					c0.607,0.172,1.165-0.345,1.634-0.766c1.883-1.694,4.6-2.43,7.07-1.869c2.47,0.561,4.617,2.423,5.474,4.807
					c0.426,1.185,0.542,2.454,0.709,3.702c0.721,5.388,2.454,10.64,5.081,15.399c3.07,5.563,4.393,8.468,4.932,15.086
					C644.913,302.999,626.586,316.505,626.586,316.505z"/>
				<path style="fill:none;stroke:#000000;stroke-miterlimit:10;" d="M609.745,286.019c-0.757-1.21-1.562-2.452-2.86-3.441
					c-1.909-1.454-3.998-1.56-6.102-1.186"/>
				<path style="fill:none;stroke:#000000;stroke-miterlimit:10;" d="M591.954,277.799c-0.253-0.659-0.736-1.375-1.401-1.922
					c-1.788-1.469-3.727-0.547-4.892,0.36"/>
				<g>
					<path style="fill:#F9B7B7;" d="M623.572,297.098c-1.131-1.659-3.395-2.344-5.319-2.23c-2.24,0.133-3.51,1.384-4.688,3.189
						c-1.227,1.88-3.056,3.938-3.836,6.039c-0.837,2.255,0.446,4.374,2.512,5.36C618.359,312.375,627.864,303.398,623.572,297.098z"
						/>
					<line style="fill:none;stroke:#000000;stroke-miterlimit:10;" x1="620.627" y1="302.041" x2="612.356" y2="302.939"/>
				</g>
				<path style="fill:#FFFFFF;" d="M587.795,300.707c0.186,1.921,1.223,3.662,2.297,4.193c3.469,1.713,6.005-1.629,5.177-5.371
					L587.795,300.707z"/>
				<path style="fill:none;stroke:#4C4144;stroke-miterlimit:10;" d="M594.704,269.111c-1.834-0.77-3.621-1.722-5.073-3.082
					c-1.452-1.359-2.553-3.165-2.782-5.141"/>
			</g>
			<g>
				<g>
					<path style="fill:#F9B7B7;" d="M489.947,347.245c-4.824-15.05-9.652-30.118-12.782-45.556c-0.576-2.841-3.31-0.003-3.85,1.222
						c-2.161,4.9-0.411,10.267-1.572,10.532c-1.581-5.879-3.423-10.43-4.277-12.733c-1.623-4.378-3.719-8.422-5.558-11.711
						c-0.15-0.268-0.343-0.541-0.715-0.647c-1.782-0.504-2.747,1.72-2.902,2.436c-1.482,6.818,2.141,9.633,2.797,16.996
						c-0.956-3.528-2.695-7.214-4.188-10.595c-0.865-1.958-5.116-9.741-7.51-10.217c-1.577-0.313-2.122,2.033-2.213,2.984
						c-0.187,1.972,0.253,3.801,0.678,5.785c0,0-1.256-2.014-1.664-3.209c-0.238-0.697-0.985-1.527-1.96-1.652
						c-1.215-0.156-2.331,1.576-2.561,2.41c-0.925,3.37,2.978,13.57,2.978,13.57s-4.775-6.342-6.669-5.566
						c-1.894,0.776-1.22,3.194-0.427,5.415c0.793,2.221,2.722,4.559,3.907,6.722c2.93,5.349,3.578,10.43,5.397,16.197
						c1.093,3.465,2.339,6.888,3.897,10.174c1.498,3.159,3.668,5.976,4.908,9.232c0.933,2.447,0.278,5.054,1.161,7.474"/>
					<path style="fill:none;stroke:#000000;stroke-miterlimit:10;" d="M472.352,312.175c0.133,1.974-0.678,3.991-1.313,5.974
						c-1.704,5.327-2.174,10.824-1.371,16.044"/>
					<path style="fill:none;stroke:#000000;stroke-miterlimit:10;" d="M458.383,298.575c2.058,5.431,3.878,10.953,5.454,16.55"/>
					<path style="fill:none;stroke:#000000;stroke-miterlimit:10;" d="M447.386,295.491c3.289,6.595,6.132,14.166,7.736,21.072"/>
					<path style="fill:none;stroke:#000000;stroke-miterlimit:10;" d="M442.873,303.96c3.069,4.701,5.417,9.781,6.977,15.099"/>
				</g>
				<path style="fill:#A2BDFF;" d="M577.914,320.456c1.989,1.717,1.867,5.353,3.013,7.498c4.52,8.458,16.225,8.756,24.386,5.322
					c7.599-3.197,12.82-9.967,20.722-12.614c6.452-2.161,13.408-2.661,20.069-1.068c9.417,2.251,17.083,21.617,17.083,21.617
					s11.17,8.035,19.493,24.722c8.323,16.688,24.608,102.023,24.608,102.023H570.878c0,0-5.87-53.027-9.375-63.946
					c-3.504-10.919-11.332-36.222-11.332-43.021c0-6.799,4.201-23.531,4.201-23.531l16.645-10.936
					C571.017,326.522,577.914,320.455,577.914,320.456z"/>
				<path style="fill:#A2BDFF;" d="M571.017,326.522c0,0-6.243,2.513-13.252,4.161c-7.009,1.648-19.555,7.865-25.469,17.342
					c-5.914,9.477-18.921,25.247-18.921,25.247s-9.644-21.58-15.814-28.378c-1.955-2.155-7.615-5.19-7.615-5.19l-3.293-6.601
					l-35.791,12.9l2.507,7.849c0,0-4.381,5.291-1.095,13.326c3.285,8.035,19.485,51.419,23.866,59.699
					c4.38,8.279,7.955,26.67,34.86,26.67c26.905,0,59.877-61.698,59.877-61.698"/>
				<path style="fill:none;stroke:#000000;stroke-width:1.5;stroke-miterlimit:10;" d="M579.023,319.364
					c0.758,4.891,2.461,10.217,6.622,13.518c4.969,3.943,12.241,3.19,17.909,0.96c6.093-2.398,10.874-6.737,16.492-9.84
					c5.6-3.092,11.67-5.496,18.048-6.717c8.514-1.63,17.624-1.072,25.502,2.374"/>
				<path style="fill:none;stroke:#000000;stroke-width:1.5;stroke-miterlimit:10;" d="M637.913,332.504
					c11.353,1.418,22.899,6.026,32.35,15.297"/>
				<path style="fill:none;stroke:#000000;stroke-width:1.5;stroke-miterlimit:10;" d="M571.306,326.46
					c1.091,2.029,2.434,3.939,3.992,5.678"/>
				<circle style="fill:none;stroke:#000000;stroke-width:1.5;stroke-miterlimit:10;" cx="612.248" cy="340.464" r="2.503"/>
				<circle style="fill:none;stroke:#000000;stroke-width:1.5;stroke-miterlimit:10;" cx="581.654" cy="336.851" r="2.503"/>
				<path style="fill:none;stroke:#7984D1;stroke-width:1.5;stroke-linejoin:round;stroke-miterlimit:10;" d="M581.654,336.851
					c0.081,15.825,0.162,31.649,0.243,47.474"/>
				<path style="fill:none;stroke:#7984D1;stroke-width:1.5;stroke-linejoin:round;stroke-miterlimit:10;" d="M612.131,339.457
					c2.282,19.107,3.458,38.331,3.521,57.559"/>
				<path style="fill:none;stroke:#000000;stroke-width:1.5;stroke-miterlimit:10;" d="M563.059,412.002
					c0,0-7.673-40.229-10.434-47.507"/>
				<path style="fill:none;stroke:#000000;stroke-width:1.5;stroke-miterlimit:10;" d="M513.375,373.272
					c0,0,17.667,27.363,18.921,37.151"/>
				
					<line style="fill:none;stroke:#000000;stroke-width:1.5;stroke-miterlimit:10;" x1="489.947" y1="339.703" x2="453.37" y2="353.851"/>
			</g>
			<g>
				<g>
					<path style="fill:#F9B7B7;" d="M565.426,408.194c-12.155-4.753-24.915-9.593-37.883-8.121
						c-6.642,0.754-14.587,2.928-20.256,6.56c-4.751,3.044-7.066,7.395-7.151,12.958c-0.032,2.082-0.227,4.161-0.265,6.245
						c-0.05,2.723-0.741,5.332,2.613,5.292c-0.323,1.58-0.625,3.318,0.159,4.728c0.784,1.409,3.157,1.914,3.938,0.503
						c-0.353,1.116,0.713,2.275,1.867,2.475c1.154,0.2,2.308-0.262,3.388-0.715c-0.774,0.572-0.542,1.896,0.225,2.479
						c0.767,0.582,1.815,0.603,2.772,0.499c5.04-0.549,8.632-4.258,13.894-4.305c5.478-0.049,10.543,2.642,15.667,4.581
						c7.707,2.916,16.221,4.303,24.459,3.825"/>
					<path style="fill:none;stroke:#000000;stroke-miterlimit:10;" d="M502.385,430.825c0.558-4.86,1.916-9.687,4.49-13.846
						c2.575-4.159,6.433-7.617,11.062-9.198"/>
					<path style="fill:none;stroke:#000000;stroke-miterlimit:10;" d="M506.613,436.94c1.882-4.634,3.76-9.495,6.595-13.483
						c2.524-3.551,5.836-6.37,9.557-8.073"/>
					<path style="fill:none;stroke:#000000;stroke-miterlimit:10;" d="M511.375,438.539c3.589-3.567,5.17-6.791,9.481-9.44
						c1.778-1.092,5.461-2.005,7.895-2.36"/>
				</g>
				<path style="fill:#A2BDFF;" d="M640.231,349.889c-5.069,7.767-14.572,38.474-18.298,48.063c-0.786,2.023-1.4,4.827-2.721,6.59
					c0,0-20.791,1.316-32.831-0.47c-6.643-0.986-21.164-3.144-26.542,0.879l-8.958-2.264l-12.303,39.626l9.261,3.118
					c0,0,0.899,4.724,7.214,8.693c6.315,3.969,59.118,11.593,77.744,12.708c18.626,1.114,26.8-4.084,34.447-26.77
					c8.333-24.722,12.964-40.791,12.964-40.791"/>
				<path style="fill:none;stroke:#000000;stroke-width:1.5;stroke-miterlimit:10;" d="M541.824,443.074l6.015,2.357
					c0,0,0.899,4.724,7.214,8.693c6.315,3.969,59.118,11.593,77.744,12.708c18.626,1.114,26.8-4.084,34.447-26.77
					c8.333-24.722,12.964-40.791,12.964-40.791"/>
				<path style="fill:none;stroke:#000000;stroke-width:1.5;stroke-miterlimit:10;" d="M640.231,349.889
					c-5.069,7.767-14.572,38.474-18.298,48.063c-0.786,2.023-1.4,4.827-2.721,6.59c0,0-20.948,0.125-32.831-0.47
					c-6.708-0.336-21.164-3.144-26.542,0.879l-9.667-2.213"/>
				
					<line style="fill:none;stroke:#000000;stroke-width:1.5;stroke-miterlimit:10;" x1="559.839" y1="404.951" x2="548.075" y2="446.223"/>
				<path style="fill:none;stroke:#000000;stroke-width:1.5;stroke-miterlimit:10;" d="M617.342,404.741
					c4.364-0.145,8.652,0.301,13.607,0.922c4.933,0.618,11.331,1.997,15.464,4.76"/>
			</g>
		</g>
		<g>
			<g>
				<path style="fill:#FFC183;" d="M448.977,462.807h-24.345c-5.369,0-9.721-4.352-9.721-9.721v-20.448h43.787v20.448
					C458.698,458.455,454.346,462.807,448.977,462.807z"/>
				<path style="fill:#FFC183;" d="M422.1,467.956h29.92c6.346-1.651,10.487-4.317,10.487-7.335h-50.894
					C411.613,463.638,415.754,466.304,422.1,467.956z"/>
				<path style="fill:#FFC183;" d="M464.379,454.491c-4.391,0-7.964-3.573-7.964-7.964c0-4.391,3.573-7.963,7.964-7.963
					c4.391,0,7.963,3.572,7.963,7.963C472.341,450.918,468.77,454.491,464.379,454.491z M464.379,441.702
					c-2.661,0-4.827,2.165-4.827,4.826c0,2.661,2.166,4.827,4.827,4.827s4.826-2.166,4.826-4.827
					C469.205,443.866,467.04,441.702,464.379,441.702z"/>
				
					<line style="fill:none;stroke:#000000;stroke-width:1.5;stroke-miterlimit:10;" x1="417.75" y1="460.621" x2="455.826" y2="460.621"/>
			</g>
			<g>
				<path style="fill:#B7C8EA;" d="M456.463,397.903h85.932c2.222,0,4.21,1.533,4.983,3.842l20.494,61.236h42.891
					c2.115,0,3.829,1.9,3.829,4.244H475.46l-21.738-64.955C453.014,400.154,454.426,397.903,456.463,397.903z"/>
				<path style="fill:#EBEEF7;" d="M470.878,467.225h93.832l-21.914-65.48c-0.773-2.309-2.761-3.842-4.983-3.842h-85.932
					c-2.037,0-3.449,2.251-2.741,4.367L470.878,467.225z"/>
				<path style="fill:none;stroke:#B7C8EA;stroke-width:1.5;stroke-miterlimit:10;" d="M508.272,435.142h-11.673
					c-0.884,0-1.669-0.563-1.953-1.4l-1.801-5.306c-0.407-1.198,0.484-2.441,1.749-2.441h11.673c0.884,0,1.669,0.563,1.953,1.399
					l1.801,5.307C510.427,433.9,509.537,435.142,508.272,435.142z"/>
			</g>
			
				<line style="fill:none;stroke:#000000;stroke-width:1.5;stroke-miterlimit:10;" x1="45.38" y1="467.956" x2="721.06" y2="467.956"/>
		</g>
	</g>
</g>
</svg>
